PathFileType	4	(X/Y/Z)	Patient4_TMGait_0pt7_02_right_22.trc.trc
DataRate	CameraRate	NumFrames	NumMarkers	Units	OrigDataRate	OrigDataStartFrame	OrigNumFrames
90.909090909091	90.909090909091	5	33	mm	90.909090909091	1	       141
Frame#	Time	Sacral			L.Shoulder			Chest			R.Shoulder			Neck			R.ASIS			L.ASIS			R.Thigh.Superior			R.Thigh.Lateral			R.Thigh.Inferior			R.Patella			L.Thigh.Superior			L.Thigh.Lateral			L.Thigh.Inferior			L.Patella			L.Shank.Superior			L.Shank.Lateral			L.Shank.Inferior			R.Shank.Superior			R.Shank.Lateral			R.Shank.Inferior			R.Heel			R.Midfoot.Superior			R.Midfoot.Lateral			R.Toe			L.Heel			L.Midfoot.Lateral			L.Midfoot.Superior			L.Toe			L.Elbow			L.Wrist			R.Elbow			R.Wrist			
		X1	Y1	Z1	X2	Y2	Z2	X3	Y3	Z3	X4	Y4	Z4	X5	Y5	Z5	X6	Y6	Z6	X7	Y7	Z7	X8	Y8	Z8	X9	Y9	Z9	X10	Y10	Z10	X11	Y11	Z11	X12	Y12	Z12	X13	Y13	Z13	X14	Y14	Z14	X15	Y15	Z15	X16	Y16	Z16	X17	Y17	Z17	X18	Y18	Z18	X19	Y19	Z19	X20	Y20	Z20	X21	Y21	Z21	X22	Y22	Z22	X23	Y23	Z23	X24	Y24	Z24	X25	Y25	Z25	X26	Y26	Z26	X27	Y27	Z27	X28	Y28	Z28	X29	Y29	Z29	X30	Y30	Z30	X31	Y31	Z31	X32	Y32	Z32	X33	Y33	Z33	

1	24.470000000000	798.607006279109	1018.847478882129	429.454375640666	996.673920309054	1434.162697375350	237.746741980823	1097.642385873840	1365.957552731448	401.552444740185	1016.119787200039	1449.656831742909	572.224607232823	997.167534150395	1499.195253075488	390.839749418706	1019.003939521474	950.696857890322	553.428798078823	1019.773715445691	966.381015079400	278.622185688975	1101.291395716518	784.328856250569	538.699732422689	1058.603769517535	665.844508257611	615.885983599785	1154.983407798290	625.384288397573	545.240544105195	1173.115742723597	512.088523487046	571.906607680803	1057.283110882114	753.158868991229	304.249807623025	961.861001510960	640.073149937004	250.928213649811	1046.867889403360	560.296840022695	310.858495461127	1045.782667920603	491.969953473118	321.640420724676	1019.632738781083	421.071598843140	315.829213546623	928.782176550020	305.109892672306	269.295130295246	983.912277123351	196.239268359115	342.518596341678	1095.889072883639	437.644384635638	575.740203050996	970.647676175163	401.633925569823	630.013069299626	957.344728517548	291.696345017825	582.846651520704	757.055642984826	234.811045900853	546.081766803825	923.068241491762	171.941321626053	596.292141306869	810.887628097777	173.165680296548	622.230405013575	981.158824801184	55.711434104397	622.982940918653	857.116538387458	39.509371084106	389.733848206861	932.212172514477	35.492898327271	309.794709266444	1014.988968879442	96.686708848460	335.952615131363	1143.832251780268	43.887667655178	310.921071732799	1023.155021654819	1092.745310828089	98.870837297097	1192.977067976939	893.034132513344	103.053536662576	988.642772463711	1108.250493139729	704.713451170683	1195.257548227302	956.905633803289	664.916911421406	
2	24.481000000000	797.071521547979	1019.043178586483	428.713096556307	997.195909721873	1434.109882678325	237.258090401878	1096.759802861910	1365.771328927430	401.804803968538	1014.229007403776	1449.725249473721	571.758328849480	996.434488271910	1499.258339400004	390.296125364367	1017.128216737137	951.103915942039	553.747361008973	1017.791093490199	965.769431645486	278.967260530214	1101.056762371812	787.330137876894	538.655933020000	1060.528832952582	668.150082135643	616.039523164301	1157.218038384941	629.128201281370	545.198498106867	1177.847737613407	517.008648075903	571.884561542270	1053.390278864517	752.384894309418	305.189543788657	957.114581649590	640.300269661199	250.624960083772	1040.572050343309	559.596703507989	311.026084646911	1038.477668733475	491.538792677411	321.765098025853	1012.351955254507	420.898494489479	315.738444959604	921.236271691671	305.213454019358	269.097230339362	976.042743398020	196.216201697693	342.434726360207	1103.535212401354	440.335966502662	575.766542018895	980.727077994506	398.914224940855	630.850230220549	971.792119244016	288.791580664387	583.477748973651	774.369733275602	223.341148716661	548.125093547519	942.894443998473	167.810318669626	596.960056362364	831.222671603649	164.225170251802	623.705938049477	1006.083620270490	54.588315017710	623.244143939585	848.985583378926	39.537578894214	389.699436102577	924.110712428102	35.448062886257	309.770254346938	1006.890446658796	96.708345487608	335.869491271060	1135.724379163234	43.910815849063	310.945106030990	1032.916182988213	1095.967543320205	95.802888287205	1211.748762908846	905.615263889772	102.709684355522	980.096096582588	1108.971505525520	705.020979694241	1171.091730797562	940.517916894547	671.803266055832	
3	24.492000000000	795.562171122510	1019.221648144257	428.013548575394	997.704319574949	1434.045384611521	236.800907269424	1095.893424323217	1365.569769709769	402.067884947830	1012.376478728769	1449.762375525760	571.322942466878	995.720028244656	1499.301780971619	389.780878406047	1015.278752120482	951.475517051996	554.064737837215	1015.900385499983	965.205502160215	279.294561284332	1100.786318410520	790.222463928395	538.604681858584	1062.365654384260	670.363828347745	616.163203304394	1159.322744545970	632.727849753941	545.112631594386	1182.382577206280	521.792807580298	571.823309620556	1049.574200968130	751.603587299485	306.116895922799	952.437114917911	640.511168758111	250.344731302964	1034.364525690034	558.900064395031	311.200361845832	1031.267698061990	491.106552285226	321.913658429573	1005.170560956871	420.719002552997	315.670459608156	913.798704463142	305.305733007694	268.916030481602	968.280818184401	196.184848240811	342.367283889396	1110.989277053657	442.937209559890	575.782044363395	990.672240703388	396.133437115771	631.692460432209	986.115090558583	285.843087667180	584.146473967076	791.617924769261	211.839986470968	550.236726314999	962.612907616763	163.671310262187	597.684319730201	851.486411741869	155.296517926274	625.249610916131	1030.876118150229	53.492399740408	623.566240845402	840.965008050073	39.556555470611	389.670208552113	916.116224593520	35.403207214736	309.749543559202	998.899624983259	96.731120504796	335.794413162128	1127.723785082533	43.940379827994	310.968638398560	1042.465848189413	1099.169034110317	92.846214788593	1230.110665508743	918.120555744644	102.456697399926	971.694119169096	1109.657950373700	705.325521673713	1147.022878817631	924.636213780257	678.632782105466	
4	24.503000000000	794.104644274216	1019.356269073681	427.393305943474	998.188979204859	1433.948819776434	236.422746028811	1095.058478294219	1365.323087146590	402.368372976440	1010.598629475212	1449.724261092777	570.963284962800	995.042622907074	1499.293782355184	389.338491069344	1013.478021706121	951.758195459740	554.384136033917	1014.176148482818	964.716141237216	279.598020319196	1100.413796670323	792.850692650559	538.542317188334	1063.976269827146	672.355914144651	616.243519819871	1161.116209491631	635.992705297998	544.949432566105	1186.484561669637	526.294479254801	571.687223756982	1045.868994589658	750.788346047328	307.023044240931	947.835292011771	640.691074302270	250.105063985097	1028.245760983314	558.196961937806	311.389230224616	1024.155413543125	490.664732505690	322.101452698467	998.089564623931	420.525812782104	315.640986130255	906.476078103334	305.376282691864	268.760516927989	960.628091851960	196.137031147351	342.329492166842	1118.074831333358	445.353357746629	575.786761113461	1000.433316558208	393.180867325739	632.557888990849	1000.345882898447	282.799742299592	584.894892691427	809.038054814933	200.173219958215	552.464324241580	982.359769734656	159.545937657191	598.534382962536	871.898555809349	146.352166398138	626.925652589788	1055.677924641338	52.579601248923	624.044964708801	833.058152280674	39.558511789800	389.650493544772	908.228734745112	35.357576987726	309.735725403943	991.016243181327	96.755419752667	335.734423023547	1119.830397617031	43.984030061520	310.991891491974	1051.646875405929	1102.343156453846	90.116024715212	1247.747838844654	930.623687897965	102.421758184659	963.466909551881	1110.305036072187	705.627983875925	1122.921213533608	909.763020996490	685.380589806498	
5	24.514000000000	792.720704889879	1019.426244390746	426.878471839778	998.642357394482	1433.802625659693	236.166804605413	1094.268659550521	1365.004254976860	402.731311528090	1008.927761234065	1449.573844429609	570.719316528944	994.418616593518	1499.206391100435	389.010210108852	1011.745439274591	951.903981913342	554.707363496985	1012.663667223777	964.308212110672	279.878150730336	1099.878547302639	795.073851113807	538.466300372914	1065.230335301434	674.006712713009	616.273431328502	1162.434530870236	638.751340927288	544.687474373145	1189.947835920502	530.386060474286	571.450253682444	1042.294360744299	749.912933558857	307.897751181953	943.299028446037	640.829394502066	249.919269358884	1022.195499693151	557.476626012875	311.598747375658	1017.123370775674	490.205908187004	322.336708989063	991.087644998578	420.314056371680	315.659697169006	899.251249015609	305.417567887961	268.635616253580	953.064510552319	196.066882074494	342.330615988547	1124.645483498810	447.506518922298	575.786299201005	1009.979599942366	389.964776482019	633.463554704007	1014.534034461237	279.630509805462	585.757526618701	826.889162697417	188.230284740139	554.831887634344	1002.284594025261	155.477328537451	599.568738235124	892.688879153717	137.384958842711	628.781610458523	1080.641453886025	52.027938383441	624.771260907669	825.247602168653	39.537943441999	389.642581006376	900.428204343405	35.310260659903	309.731053586097	983.218651792051	96.780515560700	335.695373525997	1112.023671380265	44.047727623594	311.015375471111	1060.338749032454	1105.481720218776	87.707187638180	1264.414560174614	943.202401973776	102.712668447978	955.410615373773	1110.918158546180	705.924811233541	1098.677281565569	896.321870264844	692.016361971481	
